<?xml version="1.0" encoding="utf-8"?>
<!-- Generator: Adobe Illustrator 26.1.0, SVG Export Plug-In . SVG Version: 6.00 Build 0)  -->
<svg version="1.1" id="Layer_1" xmlns="http://www.w3.org/2000/svg" xmlns:xlink="http://www.w3.org/1999/xlink" x="0px" y="0px"
	 viewBox="0 0 658.2 193.5" style="enable-background:new 0 0 658.2 193.5;" xml:space="preserve">
<style type="text/css">
	.st0{fill:#0E52FF;}
	.st1{fill:#FFFFFF;}
</style>
<g>
	<g>
		<path d="M217.1,126.8c-5.9,0-11.2-1.3-16-3.8c-4.7-2.6-8.5-6.1-11.2-10.7c-2.7-4.6-4.1-9.8-4.1-15.7c0-5.9,1.4-11.1,4.1-15.7
			c2.7-4.5,6.5-8.1,11.2-10.6c4.7-2.5,10.1-3.8,16-3.8c5.5,0,10.5,1.1,14.9,3.4c4.4,2.3,7.9,5.7,10.5,10.2c2.6,4.5,3.9,10,3.9,16.5
			c0,6.5-1.3,12-3.9,16.5c-2.6,4.5-6.1,7.9-10.5,10.3C227.6,125.6,222.6,126.8,217.1,126.8z M218.6,152.7c-5.7,0-11.1-0.8-16.3-2.5
			c-5.2-1.7-9.4-4-12.7-7.1l4.3-6.4c2.9,2.6,6.5,4.7,10.8,6.2c4.3,1.5,8.9,2.3,13.7,2.3c7.9,0,13.7-1.8,17.4-5.5
			c3.7-3.7,5.6-9.4,5.6-17.1v-15.5l1.2-10.7l-0.8-10.7V67h8v54.6c0,10.7-2.6,18.6-7.9,23.6C236.6,150.2,228.9,152.7,218.6,152.7z
			 M217.9,119.4c4.6,0,8.6-1,12.2-2.9c3.6-1.9,6.4-4.6,8.4-8c2.1-3.4,3.1-7.4,3.1-11.9c0-4.5-1-8.4-3.1-11.8c-2.1-3.4-4.9-6.1-8.4-8
			c-3.6-1.9-7.6-2.9-12.2-2.9c-4.5,0-8.5,1-12.1,2.9c-3.6,1.9-6.4,4.6-8.4,8c-2,3.4-3,7.3-3,11.8c0,4.5,1,8.5,3,11.9
			c2,3.4,4.8,6.1,8.4,8C209.4,118.4,213.4,119.4,217.9,119.4z"/>
		<path d="M283.6,129.8c-4.7,0-8.7-0.8-12.1-2.3c-3.4-1.5-6.1-3.7-7.9-6.4c-1.8-2.7-2.7-5.9-2.7-9.4c0-3.2,0.8-6.2,2.3-8.8
			c1.5-2.6,4.1-4.8,7.6-6.4c3.5-1.6,8.2-2.4,14.1-2.4h21.4v6.3h-21.2c-6,0-10.2,1.1-12.5,3.2c-2.3,2.1-3.5,4.8-3.5,7.9
			c0,3.6,1.4,6.4,4.1,8.5c2.8,2.1,6.6,3.2,11.6,3.2c4.7,0,8.8-1.1,12.3-3.3c3.4-2.2,5.9-5.3,7.5-9.4l1.9,5.8
			c-1.6,4.1-4.3,7.4-8.2,9.8C294.4,128.6,289.5,129.8,283.6,129.8z M305,129.2v-13.7l-0.4-2.2v-23c0-5.3-1.5-9.4-4.4-12.2
			c-3-2.8-7.4-4.3-13.2-4.3c-4,0-7.9,0.7-11.5,2c-3.6,1.3-6.7,3.1-9.2,5.3l-3.8-6.3c3.2-2.7,6.9-4.8,11.4-6.2
			c4.4-1.5,9.1-2.2,14-2.2c8,0,14.3,2,18.6,6c4.4,4,6.6,10,6.6,18.2v38.6H305z"/>
		<path d="M328.8,129.2V67h8V84l-0.8-3c1.7-4.7,4.7-8.3,8.8-10.8c4.1-2.5,9.2-3.7,15.3-3.7v8.2c-0.3,0-0.6,0-0.9-0.1
			c-0.3,0-0.6-0.1-0.9-0.1c-6.6,0-11.7,2-15.4,6c-3.7,4-5.6,9.6-5.6,17v31.7H328.8z"/>
		<path d="M372.5,53.3c-1.7,0-3.2-0.6-4.4-1.8c-1.2-1.2-1.8-2.6-1.8-4.3c0-1.7,0.6-3.1,1.8-4.2c1.2-1.1,2.6-1.7,4.4-1.7
			c1.7,0,3.2,0.6,4.4,1.7c1.2,1.1,1.8,2.5,1.8,4.1c0,1.7-0.6,3.2-1.7,4.4C375.7,52.7,374.3,53.3,372.5,53.3z M368.2,129.2V67h8.4
			v62.1H368.2z"/>
		<path d="M392.9,129.2V41.4h8.4v44l-1.2,12.5l0.8,12.5v18.7H392.9z M425,129.8c-5.4,0-10.3-1.2-14.7-3.7
			c-4.3-2.5-7.8-6.1-10.3-10.8c-2.5-4.7-3.8-10.5-3.8-17.2c0-6.8,1.3-12.5,3.8-17.2c2.6-4.7,6-8.3,10.4-10.7
			c4.3-2.4,9.2-3.7,14.6-3.7c5.9,0,11.2,1.3,15.9,4c4.7,2.6,8.4,6.3,11.1,11.1c2.7,4.7,4,10.3,4,16.6c0,6.2-1.3,11.7-4,16.5
			c-2.7,4.8-6.4,8.5-11.1,11.2C436.2,128.4,430.9,129.8,425,129.8z M424.4,122.3c4.4,0,8.4-1,11.8-3c3.5-2,6.2-4.9,8.3-8.5
			c2.1-3.7,3.1-7.9,3.1-12.7c0-4.9-1-9.2-3.1-12.8c-2.1-3.6-4.8-6.5-8.3-8.5c-3.5-2-7.4-3-11.8-3c-4.4,0-8.4,1-11.9,3
			c-3.5,2-6.3,4.8-8.3,8.5c-2,3.6-3,7.9-3,12.8c0,4.8,1,9.1,3,12.7c2,3.7,4.8,6.5,8.3,8.5C416,121.3,420,122.3,424.4,122.3z"/>
		<path d="M491.4,129.8c-6,0-11.4-1.4-16.2-4.1c-4.8-2.7-8.5-6.5-11.3-11.2c-2.8-4.8-4.1-10.2-4.1-16.4c0-6.2,1.4-11.7,4.1-16.5
			c2.8-4.7,6.5-8.4,11.2-11.1c4.7-2.7,10.1-4,16.2-4c6.2,0,11.6,1.3,16.4,4c4.8,2.7,8.5,6.4,11.2,11.1c2.7,4.7,4.1,10.2,4.1,16.5
			c0,6.2-1.4,11.6-4.1,16.4c-2.7,4.8-6.5,8.5-11.3,11.2C502.9,128.4,497.5,129.8,491.4,129.8z M491.4,122.3c4.5,0,8.5-1,12-3
			c3.5-2,6.2-4.9,8.2-8.5c2-3.7,3-7.9,3-12.7c0-4.9-1-9.2-3-12.8c-2-3.6-4.8-6.5-8.2-8.5c-3.5-2-7.4-3-11.8-3c-4.4,0-8.4,1-11.8,3
			c-3.5,2-6.2,4.8-8.3,8.5c-2.1,3.6-3.1,7.9-3.1,12.8c0,4.8,1,9.1,3.1,12.7c2.1,3.7,4.8,6.5,8.3,8.5
			C483.2,121.3,487.1,122.3,491.4,122.3z"/>
		<path d="M558.5,129.8c-6,0-11.4-1.4-16.2-4.1c-4.8-2.7-8.5-6.5-11.3-11.2c-2.8-4.8-4.1-10.2-4.1-16.4c0-6.2,1.4-11.7,4.1-16.5
			c2.8-4.7,6.5-8.4,11.2-11.1c4.7-2.7,10.1-4,16.2-4c6.2,0,11.6,1.3,16.4,4c4.8,2.7,8.5,6.4,11.2,11.1c2.7,4.7,4.1,10.2,4.1,16.5
			c0,6.2-1.4,11.6-4.1,16.4c-2.7,4.8-6.5,8.5-11.3,11.2C570,128.4,564.6,129.8,558.5,129.8z M558.5,122.3c4.5,0,8.5-1,12-3
			c3.5-2,6.2-4.9,8.2-8.5c2-3.7,3-7.9,3-12.7c0-4.9-1-9.2-3-12.8c-2-3.6-4.8-6.5-8.2-8.5c-3.5-2-7.4-3-11.8-3c-4.4,0-8.4,1-11.8,3
			c-3.5,2-6.2,4.8-8.3,8.5c-2.1,3.6-3.1,7.9-3.1,12.8c0,4.8,1,9.1,3.1,12.7c2.1,3.7,4.8,6.5,8.3,8.5
			C550.3,121.3,554.2,122.3,558.5,122.3z"/>
		<path d="M600.3,129.2V41.4h8.4v87.8H600.3z M606.9,113.1l0.2-10.8L645.9,67h10.3l-27.3,26.2l-4.7,4L606.9,113.1z M648.5,129.2
			l-25.9-32.3l5.4-6.5l30.8,38.8H648.5z"/>
	</g>
	<g>
		<path class="st0" d="M154.1,82.7L154.1,82.7c-1.6,35.4-22.4,60.1-34.8,71.8c-11.3-5.6-27.7-18.3-36.2-27.9
			c11.9-10.5,34.1-43.5,20.5-65.1c-5.8-9-16.9-14.6-28.2-14.5c-10.8,0.1-20,5.5-25.9,15c-3.3,6.3-3.1,12.4-2.9,17.2
			c0.2,4.2,1,10.4,5.5,20.2c11.1,23,29.2,41.4,60.6,61.4c-2.5,2.3-5,4.7-7.4,7c-3.3,3.1-6.7,6.3-10,9.4l-2.8,2.6l-0.3,0.2l0.1,0.1
			c-0.3,0.2-0.5,0.5-0.8,0.8c-0.4,0.4-0.8,0.7-1.2,1.1c-2.5,2.4-5.1,4.8-7.7,7.2l-3.5,3.3c-12.6-8.9-112.5-82.5-68.4-154.6
			C28.8,10.5,54.3,1.1,76.8,1.1c8.3,0,16.2,1.3,23.1,3.4C127.9,12.8,156.4,43.1,154.1,82.7z"/>
		<g>
			<path class="st1" d="M30.6,109.6c-0.3-0.7-1.1-0.9-1.8-0.6c-0.7,0.3-1,1.1-0.6,1.8c2.7,5.6,6,10.9,9.6,16
				c0.4,0.6,1.3,0.7,1.9,0.3l0.1-0.1c0.6-0.4,0.7-1.3,0.3-1.9C36.6,120.2,33.4,115,30.6,109.6z"/>
			<path class="st1" d="M72.6,21c-6.6,0.4-13.1,1.9-19.2,4.4c-0.4,0.2-0.6,0.6-0.4,1l0.1,0.2c0.2,0.4,0.6,0.6,1,0.4
				c5.9-2.5,12.2-4,18.6-4.5c0.4,0,0.8-0.4,0.7-0.8C73.4,21.3,73.1,20.9,72.6,21z"/>
			<path class="st1" d="M22.7,81.4c-0.1-1.7-0.2-3.5-0.1-5.2c0-1.3,0.1-2.7,0.2-4.1c0-0.6-0.4-1.2-1.1-1.2h0
				c-0.6-0.1-1.2,0.4-1.3,1.1c-0.1,1.4-0.2,2.8-0.2,4.2c0,1.8,0,3.6,0.1,5.4c0.2,3.2,0.6,6.4,1.2,9.5c0.1,0.6,0.8,1,1.4,0.9l0.2,0
				c0.6-0.1,1-0.8,0.9-1.4C23.3,87.5,22.9,84.5,22.7,81.4z"/>
			<path class="st1" d="M110.3,32.7c0.2-0.3,0.1-0.7-0.1-0.8c-5.4-3.9-11.5-6.9-18-8.8c-0.3-0.1-0.7,0.1-0.8,0.4l0,0.2
				c-0.1,0.3,0.1,0.7,0.4,0.7c6.3,1.8,12.3,4.7,17.7,8.4C109.7,33,110.1,33,110.3,32.7z"/>
			<path class="st1" d="M37.8,37.6c0.4-0.4,0.4-1,0-1.4c-0.4-0.4-1-0.4-1.4-0.1c-2.4,2.2-4.5,4.7-6.4,7.4c-1.9,2.7-3.5,5.5-4.9,8.5
				c-0.2,0.5,0,1.1,0.5,1.3l0.2,0.1c0.5,0.2,1.1,0,1.3-0.5c1.3-2.9,2.8-5.6,4.6-8.2C33.5,42.2,35.6,39.8,37.8,37.6z"/>
			<path class="st1" d="M64,156c0.6,0.6,1.6,0.6,2.2,0l0.1-0.1c0.6-0.6,0.6-1.6,0-2.2c-4.3-4.1-8.6-8.3-12.7-12.7
				c-0.6-0.6-1.5-0.7-2.2-0.1c-0.6,0.6-0.7,1.5-0.1,2.2C55.4,147.5,59.7,151.8,64,156z"/>
			<path class="st1" d="M133.3,82.5l-0.2,0c-0.1,0-0.2,0.1-0.2,0.2c-0.4,6.8-1.9,13.6-4.2,20.1c0,0.1,0,0.3,0.1,0.3
				c0.1,0,0.3,0,0.3-0.1c2.3-6.5,3.9-13.3,4.4-20.2C133.5,82.6,133.4,82.5,133.3,82.5z"/>
			<path class="st1" d="M131.8,64.5c0.2-0.1,0.4-0.3,0.3-0.5c-0.8-3.3-1.9-6.6-3.3-9.7c-1.4-3.1-3.1-6.1-5.1-8.9
				c-0.1-0.2-0.4-0.2-0.6-0.1l-0.2,0.1c-0.2,0.1-0.2,0.4-0.1,0.6c2,2.7,3.7,5.6,5.1,8.6c1.4,3,2.5,6.2,3.3,9.5
				C131.4,64.4,131.6,64.6,131.8,64.5z"/>
			<path class="st1" d="M108.1,136L108.1,136c5-5,9.3-10.6,13-16.6l-0.3-0.2C117.2,125.3,112.9,130.9,108.1,136z"/>
			<path class="st1" d="M95.6,177.2l-2.7,2.5c-4.4-3-8.7-6.1-12.8-9.4c-0.7-0.6-0.9-1.7-0.3-2.4c0.6-0.7,1.7-0.8,2.4-0.3
				C86.6,171,91,174.2,95.6,177.2z"/>
		</g>
	</g>
</g>
</svg>
