<?xml version="1.0" encoding="UTF-8"?>
<svg id="Layer_2" data-name="Layer 2" xmlns="http://www.w3.org/2000/svg" viewBox="0 0 743.43 215.73">
  <defs>
    <style>
      .cls-1 {
        fill: #fff;
        stroke-width: 0px;
      }
    </style>
  </defs>
  <g id="Layer_1-2" data-name="Layer 1">
    <g>
      <g>
        <path class="cls-1" d="M245.38,141.78c-6.67,0-12.68-1.45-18.02-4.34-5.34-2.89-9.54-6.92-12.61-12.08-3.07-5.16-4.61-11.08-4.61-17.75s1.53-12.57,4.61-17.68c3.07-5.12,7.27-9.1,12.61-11.94,5.34-2.85,11.34-4.27,18.02-4.27,6.23,0,11.83,1.29,16.82,3.87,4.98,2.58,8.94,6.41,11.88,11.48,2.94,5.07,4.4,11.26,4.4,18.55s-1.47,13.48-4.4,18.55c-2.94,5.07-6.9,8.94-11.88,11.61-4.98,2.67-10.59,4-16.82,4ZM247.12,171.01c-6.41,0-12.55-.93-18.42-2.8-5.87-1.87-10.63-4.54-14.28-8.01l4.8-7.21c3.29,2.94,7.36,5.27,12.21,7.01,4.85,1.74,9.99,2.6,15.42,2.6,8.9,0,15.44-2.07,19.62-6.21,4.18-4.14,6.27-10.57,6.27-19.29v-17.48l1.33-12.01-.93-12.01v-21.22h9.08v61.53c0,12.1-2.96,20.97-8.88,26.63-5.92,5.65-14.66,8.47-26.23,8.47ZM246.32,133.37c5.16,0,9.74-1.09,13.75-3.27,4-2.18,7.16-5.2,9.48-9.08,2.31-3.87,3.47-8.34,3.47-13.41s-1.16-9.52-3.47-13.35c-2.31-3.83-5.47-6.83-9.48-9.01-4-2.18-8.59-3.27-13.75-3.27s-9.63,1.09-13.68,3.27c-4.05,2.18-7.21,5.18-9.48,9.01-2.27,3.83-3.4,8.27-3.4,13.35s1.13,9.54,3.4,13.41c2.27,3.87,5.43,6.9,9.48,9.08,4.05,2.18,8.61,3.27,13.68,3.27Z"/>
        <path class="cls-1" d="M320.36,145.11c-5.25,0-9.81-.87-13.68-2.6-3.87-1.73-6.83-4.14-8.88-7.21-2.05-3.07-3.07-6.61-3.07-10.61,0-3.65.87-6.96,2.6-9.94,1.73-2.98,4.58-5.38,8.54-7.21,3.96-1.82,9.28-2.74,15.95-2.74h24.16v7.07h-23.89c-6.76,0-11.46,1.2-14.08,3.6-2.62,2.4-3.94,5.38-3.94,8.94,0,4,1.56,7.21,4.67,9.61,3.11,2.4,7.47,3.6,13.08,3.6s9.94-1.22,13.81-3.67c3.87-2.45,6.69-5.98,8.47-10.61l2.14,6.54c-1.78,4.63-4.87,8.32-9.28,11.08-4.4,2.76-9.94,4.14-16.62,4.14ZM344.52,144.45v-15.48l-.4-2.54v-25.89c0-5.96-1.67-10.54-5-13.75-3.34-3.2-8.3-4.81-14.88-4.81-4.54,0-8.86.76-12.95,2.27-4.09,1.51-7.56,3.52-10.41,6.01l-4.27-7.07c3.56-3.02,7.83-5.36,12.81-7.01,4.98-1.65,10.23-2.47,15.75-2.47,9.08,0,16.08,2.25,21.02,6.74,4.94,4.49,7.41,11.32,7.41,20.49v43.51h-9.08Z"/>
        <path class="cls-1" d="M371.34,144.45v-70.07h9.08v19.08l-.93-3.34c1.96-5.34,5.25-9.41,9.88-12.21,4.62-2.8,10.36-4.2,17.22-4.2v9.21c-.36,0-.71-.02-1.07-.07-.36-.04-.71-.07-1.07-.07-7.39,0-13.17,2.25-17.35,6.74-4.18,4.49-6.27,10.88-6.27,19.15v35.77h-9.48Z"/>
        <path class="cls-1" d="M420.59,58.9c-1.96,0-3.6-.67-4.94-2-1.33-1.34-2-2.94-2-4.81s.67-3.45,2-4.74c1.34-1.29,2.98-1.94,4.94-1.94s3.6.62,4.94,1.87c1.34,1.25,2,2.8,2,4.67s-.65,3.6-1.94,4.94c-1.29,1.33-2.96,2-5,2ZM415.78,144.45v-70.07h9.48v70.07h-9.48Z"/>
        <path class="cls-1" d="M443.68,144.45V45.42h9.48v49.65l-1.33,14.15.93,14.15v21.09h-9.08ZM479.85,145.11c-6.14,0-11.66-1.4-16.55-4.2-4.89-2.8-8.76-6.87-11.61-12.21-2.85-5.34-4.27-11.79-4.27-19.35s1.45-14.12,4.34-19.42c2.89-5.29,6.78-9.32,11.68-12.08,4.89-2.76,10.36-4.14,16.42-4.14,6.67,0,12.66,1.49,17.95,4.47,5.29,2.98,9.45,7.14,12.48,12.48,3.02,5.34,4.54,11.57,4.54,18.69s-1.51,13.24-4.54,18.62c-3.03,5.38-7.19,9.59-12.48,12.61-5.29,3.03-11.28,4.54-17.95,4.54ZM479.18,136.71c4.98,0,9.43-1.14,13.35-3.4,3.91-2.27,7.03-5.47,9.34-9.61,2.31-4.14,3.47-8.92,3.47-14.35s-1.16-10.32-3.47-14.41c-2.31-4.09-5.43-7.27-9.34-9.54-3.92-2.27-8.36-3.4-13.35-3.4s-9.46,1.13-13.41,3.4c-3.96,2.27-7.07,5.45-9.34,9.54-2.27,4.09-3.4,8.9-3.4,14.41s1.13,10.21,3.4,14.35c2.27,4.14,5.38,7.34,9.34,9.61,3.96,2.27,8.43,3.4,13.41,3.4Z"/>
        <path class="cls-1" d="M554.72,145.11c-6.76,0-12.84-1.53-18.22-4.6-5.38-3.07-9.63-7.29-12.75-12.68-3.12-5.38-4.67-11.54-4.67-18.48s1.56-13.21,4.67-18.55c3.11-5.34,7.34-9.52,12.68-12.55,5.34-3.02,11.43-4.54,18.28-4.54s13.1,1.51,18.48,4.54c5.38,3.03,9.61,7.21,12.68,12.55,3.07,5.34,4.6,11.52,4.6,18.55s-1.53,13.1-4.6,18.48c-3.07,5.38-7.32,9.61-12.75,12.68-5.43,3.07-11.57,4.6-18.42,4.6ZM554.72,136.71c5.07,0,9.56-1.14,13.48-3.4,3.91-2.27,7.01-5.47,9.28-9.61,2.27-4.14,3.4-8.92,3.4-14.35s-1.13-10.32-3.4-14.41c-2.27-4.09-5.36-7.27-9.28-9.54-3.92-2.27-8.36-3.4-13.35-3.4s-9.43,1.13-13.35,3.4c-3.92,2.27-7.03,5.45-9.34,9.54-2.31,4.09-3.47,8.9-3.47,14.41s1.15,10.21,3.47,14.35c2.31,4.14,5.43,7.34,9.34,9.61,3.91,2.27,8.32,3.4,13.21,3.4Z"/>
        <path class="cls-1" d="M630.39,145.11c-6.76,0-12.84-1.53-18.22-4.6-5.38-3.07-9.63-7.29-12.75-12.68-3.12-5.38-4.67-11.54-4.67-18.48s1.56-13.21,4.67-18.55c3.11-5.34,7.34-9.52,12.68-12.55,5.34-3.02,11.43-4.54,18.28-4.54s13.1,1.51,18.48,4.54c5.38,3.03,9.61,7.21,12.68,12.55,3.07,5.34,4.6,11.52,4.6,18.55s-1.53,13.1-4.6,18.48c-3.07,5.38-7.32,9.61-12.75,12.68-5.43,3.07-11.57,4.6-18.42,4.6ZM630.39,136.71c5.07,0,9.56-1.14,13.48-3.4,3.91-2.27,7.01-5.47,9.28-9.61,2.27-4.14,3.4-8.92,3.4-14.35s-1.13-10.32-3.4-14.41c-2.27-4.09-5.36-7.27-9.28-9.54-3.92-2.27-8.36-3.4-13.35-3.4s-9.43,1.13-13.35,3.4c-3.92,2.27-7.03,5.45-9.34,9.54-2.31,4.09-3.47,8.9-3.47,14.41s1.15,10.21,3.47,14.35c2.31,4.14,5.43,7.34,9.34,9.61,3.91,2.27,8.32,3.4,13.21,3.4Z"/>
        <path class="cls-1" d="M677.5,144.45V45.42h9.48v99.03h-9.48ZM684.98,126.3l.27-12.15,43.64-39.77h11.61l-30.83,29.5-5.34,4.54-19.35,17.88ZM731.82,144.45l-29.23-36.44,6.14-7.34,34.7,43.78h-11.61Z"/>
      </g>
      <path class="cls-1" d="M113.2,3.89c-7.8-2.44-16.66-3.89-26.01-3.89C61.9,0,33.09,10.66,12.6,41.42c-49.75,81.31,62.91,164.3,77.11,174.31l3.95-3.71c2.88-2.72,5.77-5.42,8.64-8.14.42-.37.86-.79,1.3-1.21.31-.29.62-.59.93-.86l-.08-.09.38-.25.28-.25c-4.86-3.28-9.58-6.75-14.16-10.41-.84-.67-.97-1.89-.3-2.73.67-.83,1.88-.96,2.71-.31,4.79,3.74,9.73,7.29,14.81,10.63,3.72-3.47,7.43-6.97,11.14-10.47,2.8-2.63,5.59-5.26,8.39-7.88-35.39-22.49-55.83-43.21-68.3-69.18-5.07-11.05-5.96-17.96-6.18-22.74-.23-5.49-.52-12.32,3.23-19.44,6.61-10.8,16.97-16.82,29.19-16.97,12.81-.1,25.33,6.27,31.85,16.37,15.35,24.44-9.74,61.6-23.13,73.45,9.51,10.86,27.99,25.13,40.78,31.48,13.98-13.2,37.4-41.09,39.26-80.95h0c2.64-44.74-29.55-78.83-61.18-88.19ZM26.58,102.42l-.2.04c-.71.16-1.42-.3-1.57-1.02-.7-3.53-1.16-7.11-1.36-10.7-.12-2.02-.14-4.04-.09-6.06.03-1.58.15-3.14.26-4.7.05-.73.69-1.28,1.42-1.22h0c.71.06,1.24.67,1.2,1.38-.09,1.53-.19,3.06-.21,4.59-.03,1.95.02,3.9.15,5.84.23,3.46.7,6.89,1.4,10.29.15.7-.29,1.39-1,1.55ZM29.8,59.03l-.19-.08c-.57-.24-.83-.9-.58-1.46,1.51-3.36,3.34-6.57,5.48-9.57,2.14-3,4.57-5.78,7.25-8.31.44-.42,1.15-.39,1.56.06.41.44.38,1.13-.06,1.54-2.54,2.45-4.86,5.14-6.87,8.03-2.02,2.88-3.74,5.97-5.16,9.2-.24.55-.88.82-1.44.58ZM45.6,141.94l-.16.12c-.68.5-1.64.35-2.13-.33-4.07-5.69-7.76-11.68-10.84-18-.37-.76-.06-1.68.71-2.05.74-.35,1.64-.05,2.01.68,3.05,6.11,6.7,11.92,10.74,17.46.49.68.35,1.63-.32,2.12ZM58.56,157.69c.7-.64,1.78-.6,2.43.09,4.62,4.9,9.45,9.62,14.35,14.29.69.66.72,1.76.05,2.45l-.13.14c-.66.69-1.76.71-2.45.04-4.87-4.74-9.72-9.55-14.35-14.57-.65-.7-.6-1.8.1-2.44ZM82.62,24.19c-7.22.52-14.36,2.23-21.02,5.05-.45.19-.97-.01-1.17-.46l-.08-.19c-.2-.46.01-.99.47-1.18,6.89-2.85,14.25-4.53,21.68-4.99.49-.03.92.35.94.85.03.49-.34.9-.83.93ZM104.11,26.31c-.36-.1-.58-.47-.48-.83l.06-.2c.1-.37.48-.59.85-.48,7.28,2.11,14.16,5.51,20.29,9.93.31.22.37.65.15.96-.22.3-.64.37-.95.15-6.05-4.28-12.81-7.54-19.93-9.52ZM122.55,152.23l-.08-.08c5.44-5.77,10.31-12.09,14.41-18.87l.28.17c-4.18,6.76-9.11,13.05-14.61,18.78ZM139.2,50.75c-.15-.21-.11-.5.1-.66l.17-.13c.21-.16.51-.11.67.11,2.23,3.13,4.18,6.47,5.75,9.98,1.58,3.51,2.81,7.17,3.7,10.9.06.26-.1.51-.36.57-.25.06-.5-.1-.56-.35-.91-3.67-2.15-7.26-3.74-10.69-1.58-3.43-3.52-6.69-5.74-9.74ZM146.2,114.85c-.05.14-.2.21-.34.16-.14-.05-.21-.2-.16-.33,2.56-7.3,4.22-14.93,4.72-22.64,0-.15.13-.25.28-.25h.22c.15.02.26.15.25.3-.58,7.78-2.32,15.45-4.96,22.76Z"/>
    </g>
  </g>
</svg>