<svg width="133" height="54" viewBox="0 0 133 54" fill="none" xmlns="http://www.w3.org/2000/svg">
<path d="M28.4891 24.4216C28.1942 30.895 24.3604 35.4117 22.0749 37.5512C19.9921 36.5272 16.9693 34.2048 15.4026 32.4493C17.596 30.5293 21.6878 24.4948 19.1811 20.5449C18.1121 18.8992 16.0662 17.8751 13.9834 17.8934C11.9928 17.9117 10.2971 18.8992 9.20963 20.6364C8.60139 21.7884 8.63825 22.9039 8.67511 23.7816C8.71198 24.5496 8.85943 25.6834 9.68885 27.4754C11.7348 31.6813 15.0709 35.046 20.8584 38.7032C20.3976 39.1238 19.9368 39.5627 19.4944 39.9833C18.8862 40.5502 18.2595 41.1353 17.6513 41.7022L17.1352 42.1776L17.0799 42.2142L17.0983 42.2325C17.043 42.2691 17.0062 42.3239 16.9509 42.3788C16.8772 42.4519 16.8034 42.5068 16.7297 42.5799C16.2689 43.0188 15.7897 43.4577 15.3105 43.8966L14.6654 44.5C12.343 42.8725 -6.07015 29.4138 2.05818 16.2294C5.39429 11.2189 10.0943 9.5 14.2414 9.5C15.7713 9.5 17.2274 9.73772 18.4991 10.1217C23.66 11.6395 28.913 17.1803 28.4891 24.4216Z" fill="#0E53FF"/>
<path d="M5.72611 29.3405C5.67082 29.2125 5.52336 29.1759 5.39434 29.2308C5.26532 29.2857 5.21003 29.432 5.28375 29.56C5.78141 30.584 6.38965 31.5532 7.05319 32.4858C7.12691 32.5955 7.2928 32.6138 7.40339 32.5406L7.42182 32.5223C7.53241 32.4492 7.55084 32.2846 7.47711 32.1749C6.83201 31.2789 6.2422 30.328 5.72611 29.3405Z" fill="white"/>
<path d="M13.4676 13.1389C12.2511 13.212 11.0531 13.4863 9.92876 13.9435C9.85504 13.9801 9.81817 14.0532 9.85504 14.1264L9.87347 14.1629C9.91033 14.2361 9.98406 14.2726 10.0578 14.2361C11.1452 13.7789 12.3064 13.5046 13.4861 13.4132C13.5598 13.4132 13.6335 13.34 13.6151 13.2669C13.6151 13.1937 13.5598 13.1206 13.4676 13.1389Z" fill="white"/>
<path d="M4.27012 24.1838C4.25168 23.8729 4.23325 23.5438 4.25168 23.2329C4.25168 22.9952 4.27012 22.7392 4.28855 22.4832C4.28855 22.3735 4.21482 22.2637 4.0858 22.2637C3.97521 22.2455 3.86462 22.3369 3.84619 22.4649C3.82776 22.7209 3.80933 22.9769 3.80933 23.2329C3.80933 23.5621 3.80933 23.8912 3.82776 24.2204C3.86462 24.8055 3.93835 25.3907 4.04894 25.9576C4.06737 26.0673 4.19639 26.1404 4.30698 26.1222H4.34384C4.45443 26.1039 4.52816 25.9759 4.50973 25.8661C4.3807 25.2993 4.30698 24.7507 4.27012 24.1838Z" fill="white"/>
<path d="M20.4161 15.2785C20.453 15.2236 20.4345 15.1505 20.3977 15.1322C19.4024 14.419 18.278 13.8704 17.08 13.523C17.0247 13.5047 16.951 13.5413 16.9325 13.5962V13.6327C16.9141 13.6876 16.951 13.7607 17.0063 13.7607C18.1674 14.0899 19.2733 14.6202 20.2686 15.2968C20.3055 15.3334 20.3792 15.3334 20.4161 15.2785Z" fill="white"/>
<path d="M7.05318 16.1744C7.1269 16.1013 7.1269 15.9916 7.05318 15.9184C6.97945 15.8453 6.86886 15.8453 6.79514 15.9001C6.35278 16.3024 5.96572 16.7596 5.61552 17.2533C5.26532 17.747 4.97041 18.2591 4.71237 18.8077C4.67551 18.8991 4.71237 19.0088 4.80453 19.0454L4.84139 19.0637C4.93355 19.1002 5.04414 19.0637 5.081 18.9722C5.32061 18.4419 5.59708 17.9482 5.92885 17.4728C6.26062 17.0156 6.64768 16.5767 7.05318 16.1744Z" fill="white"/>
<path d="M11.8822 37.8254C11.9927 37.9351 12.1771 37.9351 12.2876 37.8254L12.3061 37.8071C12.4167 37.6974 12.4167 37.5145 12.3061 37.4048C11.5135 36.655 10.721 35.887 9.96527 35.0824C9.85468 34.9727 9.68879 34.9544 9.55977 35.0641C9.44918 35.1738 9.43075 35.3384 9.54134 35.4664C10.297 36.271 11.0896 37.0573 11.8822 37.8254Z" fill="white"/>
<path d="M24.6555 24.3849H24.6186C24.6002 24.3849 24.5817 24.4032 24.5817 24.4215C24.508 25.665 24.2315 26.9085 23.8076 28.0971C23.8076 28.1154 23.8076 28.1519 23.826 28.1519C23.8445 28.1519 23.8813 28.1519 23.8813 28.1336C24.3053 26.945 24.6002 25.7016 24.6923 24.4398C24.6923 24.4032 24.6739 24.3849 24.6555 24.3849Z" fill="white"/>
<path d="M24.379 21.0935C24.4158 21.0752 24.4527 21.0386 24.4343 21.002C24.2868 20.3986 24.0841 19.7952 23.826 19.2283C23.568 18.6614 23.2546 18.1128 22.886 17.6008C22.8676 17.5642 22.8123 17.5642 22.7754 17.5825L22.7385 17.6008C22.7017 17.6191 22.7017 17.6739 22.7201 17.7105C23.0887 18.2042 23.4021 18.7345 23.6601 19.2831C23.9182 19.8317 24.1209 20.4169 24.2684 21.0203C24.3052 21.0752 24.3421 21.1118 24.379 21.0935Z" fill="white"/>
<path d="M20.0107 34.1682C20.9323 33.2539 21.7249 32.2298 22.4068 31.1326L22.3516 31.0961C21.688 32.2115 20.8955 33.2356 20.0107 34.1682Z" fill="white"/>
<path d="M17.7067 41.7021L17.209 42.1593C16.398 41.6107 15.6055 41.0438 14.8498 40.4403C14.7208 40.3306 14.6839 40.1295 14.7945 40.0015C14.9051 39.8735 15.1078 39.8552 15.2368 39.9466C16.0478 40.5683 16.8588 41.1535 17.7067 41.7021Z" fill="white"/>
<path d="M52.5532 41L40.3132 13H45.9532L56.8732 38.32H53.6332L64.6732 13H69.8732L57.6732 41H52.5532ZM72.4279 41V13H76.7079L88.9479 33.44H86.7079L98.7479 13H103.028L103.068 41H98.1479L98.1079 20.72H99.1479L88.9079 37.8H86.5879L76.1879 20.72H77.3879V41H72.4279ZM118.911 41.4C116.724 41.4 114.631 41.0933 112.631 40.48C110.631 39.84 109.044 39.0267 107.871 38.04L109.671 34C110.791 34.88 112.178 35.6133 113.831 36.2C115.484 36.7867 117.178 37.08 118.911 37.08C120.378 37.08 121.564 36.92 122.471 36.6C123.378 36.28 124.044 35.8533 124.471 35.32C124.898 34.76 125.111 34.1333 125.111 33.44C125.111 32.5867 124.804 31.9067 124.191 31.4C123.578 30.8667 122.778 30.4533 121.791 30.16C120.831 29.84 119.751 29.5467 118.551 29.28C117.378 29.0133 116.191 28.7067 114.991 28.36C113.818 27.9867 112.738 27.52 111.751 26.96C110.791 26.3733 110.004 25.6 109.391 24.64C108.778 23.68 108.471 22.4533 108.471 20.96C108.471 19.44 108.871 18.0533 109.671 16.8C110.498 15.52 111.738 14.5067 113.391 13.76C115.071 12.9867 117.191 12.6 119.751 12.6C121.431 12.6 123.098 12.8133 124.751 13.24C126.404 13.6667 127.844 14.28 129.071 15.08L127.431 19.12C126.178 18.3733 124.884 17.8267 123.551 17.48C122.218 17.1067 120.938 16.92 119.711 16.92C118.271 16.92 117.098 17.0933 116.191 17.44C115.311 17.7867 114.658 18.24 114.231 18.8C113.831 19.36 113.631 20 113.631 20.72C113.631 21.5733 113.924 22.2667 114.511 22.8C115.124 23.3067 115.911 23.7067 116.871 24C117.858 24.2933 118.951 24.5867 120.151 24.88C121.351 25.1467 122.538 25.4533 123.711 25.8C124.911 26.1467 125.991 26.6 126.951 27.16C127.938 27.72 128.724 28.48 129.311 29.44C129.924 30.4 130.231 31.6133 130.231 33.08C130.231 34.5733 129.818 35.96 128.991 37.24C128.191 38.4933 126.951 39.5067 125.271 40.28C123.591 41.0267 121.471 41.4 118.911 41.4Z" fill="white"/>
</svg>
